<svg xmlns="http://www.w3.org/2000/svg" xmlns:xlink="http://www.w3.org/1999/xlink" width="1700" zoomAndPan="magnify" viewBox="0 0 1275 149.999998" height="200" preserveAspectRatio="xMidYMid meet" version="1.2"><defs><clipPath id="37ca2d4bf7"><path d="M 269.085938 69.003906 L 487.777344 69.003906 L 487.777344 149.6875 L 269.085938 149.6875 Z M 269.085938 69.003906 "/></clipPath><clipPath id="a953c70191"><path d="M 338.085938 0 L 418.769531 0 L 418.769531 149.675781 L 338.085938 149.675781 Z M 338.085938 0 "/></clipPath><clipPath id="e18f79bdce"><path d="M 528.15625 69.003906 L 746.84375 69.003906 L 746.84375 149.6875 L 528.15625 149.6875 Z M 528.15625 69.003906 "/></clipPath><clipPath id="01ad42dcd3"><path d="M 597.15625 0 L 677.839844 0 L 677.839844 149.675781 L 597.15625 149.675781 Z M 597.15625 0 "/></clipPath><clipPath id="5a99798096"><path d="M 788.757812 69.003906 L 1007.449219 69.003906 L 1007.449219 149.6875 L 788.757812 149.6875 Z M 788.757812 69.003906 "/></clipPath><clipPath id="cd5d7673ce"><path d="M 857.757812 0 L 938.441406 0 L 938.441406 149.675781 L 857.757812 149.675781 Z M 857.757812 0 "/></clipPath><clipPath id="11f72afc77"><path d="M 1041.308594 69.160156 L 1260 69.160156 L 1260 149.84375 L 1041.308594 149.84375 Z M 1041.308594 69.160156 "/></clipPath><clipPath id="23463483e3"><path d="M 1110.308594 0.144531 L 1190.992188 0.144531 L 1190.992188 149.832031 L 1110.308594 149.832031 Z M 1110.308594 0.144531 "/></clipPath><clipPath id="892b1b2307"><path d="M 15 69.003906 L 233.691406 69.003906 L 233.691406 149.6875 L 15 149.6875 Z M 15 69.003906 "/></clipPath><clipPath id="d81e79adcd"><path d="M 84 0 L 164.683594 0 L 164.683594 149.675781 L 84 149.675781 Z M 84 0 "/></clipPath></defs><g id="66657e3092"><g clip-rule="nonzero" clip-path="url(#37ca2d4bf7)"><path style=" stroke:none;fill-rule:nonzero;fill:#9fa5d4;fill-opacity:1;" d="M 269.085938 69.003906 L 487.816406 69.003906 L 487.816406 149.6875 L 269.085938 149.6875 Z M 269.085938 69.003906 "/></g><g clip-rule="nonzero" clip-path="url(#a953c70191)"><path style=" stroke:none;fill-rule:nonzero;fill:#9fa5d4;fill-opacity:1;" d="M 338.085938 149.675781 L 338.085938 -0.03125 L 418.769531 -0.03125 L 418.769531 149.675781 Z M 338.085938 149.675781 "/></g><g clip-rule="nonzero" clip-path="url(#e18f79bdce)"><path style=" stroke:none;fill-rule:nonzero;fill:#9fa5d4;fill-opacity:1;" d="M 528.15625 69.003906 L 746.882812 69.003906 L 746.882812 149.6875 L 528.15625 149.6875 Z M 528.15625 69.003906 "/></g><g clip-rule="nonzero" clip-path="url(#01ad42dcd3)"><path style=" stroke:none;fill-rule:nonzero;fill:#9fa5d4;fill-opacity:1;" d="M 597.15625 149.675781 L 597.15625 -0.03125 L 677.839844 -0.03125 L 677.839844 149.675781 Z M 597.15625 149.675781 "/></g><g clip-rule="nonzero" clip-path="url(#5a99798096)"><path style=" stroke:none;fill-rule:nonzero;fill:#9fa5d4;fill-opacity:1;" d="M 788.757812 69.003906 L 1007.488281 69.003906 L 1007.488281 149.6875 L 788.757812 149.6875 Z M 788.757812 69.003906 "/></g><g clip-rule="nonzero" clip-path="url(#cd5d7673ce)"><path style=" stroke:none;fill-rule:nonzero;fill:#9fa5d4;fill-opacity:1;" d="M 857.757812 149.675781 L 857.757812 -0.03125 L 938.441406 -0.03125 L 938.441406 149.675781 Z M 857.757812 149.675781 "/></g><g clip-rule="nonzero" clip-path="url(#11f72afc77)"><path style=" stroke:none;fill-rule:nonzero;fill:#9fa5d4;fill-opacity:1;" d="M 1041.308594 69.160156 L 1260.039062 69.160156 L 1260.039062 149.84375 L 1041.308594 149.84375 Z M 1041.308594 69.160156 "/></g><g clip-rule="nonzero" clip-path="url(#23463483e3)"><path style=" stroke:none;fill-rule:nonzero;fill:#9fa5d4;fill-opacity:1;" d="M 1110.308594 149.832031 L 1110.308594 0.125 L 1190.992188 0.125 L 1190.992188 149.832031 Z M 1110.308594 149.832031 "/></g><g clip-rule="nonzero" clip-path="url(#892b1b2307)"><path style=" stroke:none;fill-rule:nonzero;fill:#9fa5d4;fill-opacity:1;" d="M 15 69.003906 L 233.730469 69.003906 L 233.730469 149.6875 L 15 149.6875 Z M 15 69.003906 "/></g><g clip-rule="nonzero" clip-path="url(#d81e79adcd)"><path style=" stroke:none;fill-rule:nonzero;fill:#9fa5d4;fill-opacity:1;" d="M 84 149.675781 L 84 -0.03125 L 164.683594 -0.03125 L 164.683594 149.675781 Z M 84 149.675781 "/></g></g></svg>