<svg xmlns="http://www.w3.org/2000/svg" xmlns:xlink="http://www.w3.org/1999/xlink" width="1500" zoomAndPan="magnify" viewBox="0 0 1125 374.999991" height="500" preserveAspectRatio="xMidYMid meet" version="1.2"><defs><clipPath id="50ece62f31"><path d="M 9.765625 116.996094 L 33.117188 116.996094 L 33.117188 187.496094 L 9.765625 187.496094 Z M 9.765625 116.996094 "/></clipPath><clipPath id="c38ef9b1d4"><path d="M 26.25 117 L 96.75 117 L 96.75 140.351562 L 26.25 140.351562 Z M 26.25 117 "/></clipPath><clipPath id="9569f57c78"><path d="M 73.402344 52.621094 L 96.753906 52.621094 L 96.753906 123.121094 L 73.402344 123.121094 Z M 73.402344 52.621094 "/></clipPath><clipPath id="9971c97e5a"><path d="M 90.023438 52.625 L 160.523438 52.625 L 160.523438 75.980469 L 90.023438 75.980469 Z M 90.023438 52.625 "/></clipPath><clipPath id="c2a08b7f86"><path d="M 137.253906 69.847656 L 160.609375 69.847656 L 160.609375 140.347656 L 137.253906 140.347656 Z M 137.253906 69.847656 "/></clipPath><clipPath id="f4e2c92f0c"><path d="M 153.679688 117 L 224.179688 117 L 224.179688 140.351562 L 153.679688 140.351562 Z M 153.679688 117 "/></clipPath><clipPath id="fc1ce2148a"><path d="M 201.109375 116.996094 L 224.460938 116.996094 L 224.460938 187.496094 L 201.109375 187.496094 Z M 201.109375 116.996094 "/></clipPath><clipPath id="54fa53701b"><path d="M 279.5625 171.121094 L 302.914062 171.121094 L 302.914062 241.621094 L 279.5625 241.621094 Z M 279.5625 171.121094 "/></clipPath><clipPath id="82eae3175d"><path d="M 215.929688 218.265625 L 286.429688 218.265625 L 286.429688 241.617188 L 215.929688 241.617188 Z M 215.929688 218.265625 "/></clipPath><clipPath id="b36d4b652e"><path d="M 215.925781 235.496094 L 239.277344 235.496094 L 239.277344 305.996094 L 215.925781 305.996094 Z M 215.925781 235.496094 "/></clipPath><clipPath id="47360f756a"><path d="M 152.15625 282.636719 L 222.65625 282.636719 L 222.65625 305.992188 L 152.15625 305.992188 Z M 152.15625 282.636719 "/></clipPath><clipPath id="c72b889fcb"><path d="M 152.070312 218.269531 L 175.425781 218.269531 L 175.425781 288.769531 L 152.070312 288.769531 Z M 152.070312 218.269531 "/></clipPath><clipPath id="8390cc41f7"><path d="M 88.5 218.265625 L 159 218.265625 L 159 241.617188 L 88.5 241.617188 Z M 88.5 218.265625 "/></clipPath><clipPath id="4231c125fe"><path d="M 88.21875 171.121094 L 111.570312 171.121094 L 111.570312 241.621094 L 88.21875 241.621094 Z M 88.21875 171.121094 "/></clipPath><clipPath id="e220440e32"><path d="M 279.570312 125.609375 L 302.921875 125.609375 L 302.921875 196.109375 L 279.570312 196.109375 Z M 279.570312 125.609375 "/></clipPath><clipPath id="cf3539d67f"><path d="M 296.054688 125.613281 L 366.554688 125.613281 L 366.554688 148.964844 L 296.054688 148.964844 Z M 296.054688 125.613281 "/></clipPath><clipPath id="5b98edb0fc"><path d="M 343.207031 61.234375 L 366.558594 61.234375 L 366.558594 131.734375 L 343.207031 131.734375 Z M 343.207031 61.234375 "/></clipPath><clipPath id="19b3e47a3a"><path d="M 359.828125 61.238281 L 430.328125 61.238281 L 430.328125 84.59375 L 359.828125 84.59375 Z M 359.828125 61.238281 "/></clipPath><clipPath id="926668e53d"><path d="M 407.058594 78.460938 L 430.414062 78.460938 L 430.414062 148.960938 L 407.058594 148.960938 Z M 407.058594 78.460938 "/></clipPath><clipPath id="08c1176a48"><path d="M 423.484375 125.613281 L 493.984375 125.613281 L 493.984375 148.964844 L 423.484375 148.964844 Z M 423.484375 125.613281 "/></clipPath><clipPath id="339425f299"><path d="M 470.914062 125.609375 L 494.265625 125.609375 L 494.265625 196.109375 L 470.914062 196.109375 Z M 470.914062 125.609375 "/></clipPath><clipPath id="e89c9ff2c5"><path d="M 549.015625 125.667969 L 572.371094 125.667969 L 572.371094 196.167969 L 549.015625 196.167969 Z M 549.015625 125.667969 "/></clipPath><clipPath id="92f13bca6d"><path d="M 565.5 125.671875 L 636 125.671875 L 636 149.027344 L 565.5 149.027344 Z M 565.5 125.671875 "/></clipPath><clipPath id="5ec6e8e862"><path d="M 612.652344 61.292969 L 636.007812 61.292969 L 636.007812 131.792969 L 612.652344 131.792969 Z M 612.652344 61.292969 "/></clipPath><clipPath id="c7761fa316"><path d="M 629.273438 61.300781 L 699.773438 61.300781 L 699.773438 84.652344 L 629.273438 84.652344 Z M 629.273438 61.300781 "/></clipPath><clipPath id="c88c3ef256"><path d="M 676.507812 78.519531 L 699.859375 78.519531 L 699.859375 149.019531 L 676.507812 149.019531 Z M 676.507812 78.519531 "/></clipPath><clipPath id="bedd6fe86d"><path d="M 692.929688 125.671875 L 763.429688 125.671875 L 763.429688 149.027344 L 692.929688 149.027344 Z M 692.929688 125.671875 "/></clipPath><clipPath id="01afd21100"><path d="M 740.359375 125.667969 L 763.710938 125.667969 L 763.710938 196.167969 L 740.359375 196.167969 Z M 740.359375 125.667969 "/></clipPath><clipPath id="9e5e48b3c0"><path d="M 818.8125 179.792969 L 842.164062 179.792969 L 842.164062 250.292969 L 818.8125 250.292969 Z M 818.8125 179.792969 "/></clipPath><clipPath id="d516764e9b"><path d="M 755.179688 226.9375 L 825.679688 226.9375 L 825.679688 250.289062 L 755.179688 250.289062 Z M 755.179688 226.9375 "/></clipPath><clipPath id="26cbe09e61"><path d="M 755.175781 244.167969 L 778.53125 244.167969 L 778.53125 314.667969 L 755.175781 314.667969 Z M 755.175781 244.167969 "/></clipPath><clipPath id="257efe3949"><path d="M 691.40625 291.308594 L 761.90625 291.308594 L 761.90625 314.664062 L 691.40625 314.664062 Z M 691.40625 291.308594 "/></clipPath><clipPath id="626fd61422"><path d="M 691.324219 226.941406 L 714.675781 226.941406 L 714.675781 297.441406 L 691.324219 297.441406 Z M 691.324219 226.941406 "/></clipPath><clipPath id="86978e64e6"><path d="M 627.753906 226.9375 L 698.253906 226.9375 L 698.253906 250.289062 L 627.753906 250.289062 Z M 627.753906 226.9375 "/></clipPath><clipPath id="308b1a7a29"><path d="M 627.46875 179.792969 L 650.824219 179.792969 L 650.824219 250.292969 L 627.46875 250.292969 Z M 627.46875 179.792969 "/></clipPath><clipPath id="9383e18dd6"><path d="M 818.820312 134.28125 L 842.175781 134.28125 L 842.175781 204.78125 L 818.820312 204.78125 Z M 818.820312 134.28125 "/></clipPath><clipPath id="2b99ef586a"><path d="M 835.308594 134.285156 L 905.808594 134.285156 L 905.808594 157.640625 L 835.308594 157.640625 Z M 835.308594 134.285156 "/></clipPath><clipPath id="6a8c100dac"><path d="M 882.457031 69.90625 L 905.8125 69.90625 L 905.8125 140.40625 L 882.457031 140.40625 Z M 882.457031 69.90625 "/></clipPath><clipPath id="d753a262cf"><path d="M 899.082031 69.914062 L 969.582031 69.914062 L 969.582031 93.265625 L 899.082031 93.265625 Z M 899.082031 69.914062 "/></clipPath><clipPath id="0bde6417c1"><path d="M 946.3125 87.132812 L 969.664062 87.132812 L 969.664062 157.632812 L 946.3125 157.632812 Z M 946.3125 87.132812 "/></clipPath><clipPath id="76fc182fdc"><path d="M 962.734375 134.285156 L 1033.234375 134.285156 L 1033.234375 157.640625 L 962.734375 157.640625 Z M 962.734375 134.285156 "/></clipPath><clipPath id="ed743878a6"><path d="M 1010.164062 134.28125 L 1033.519531 134.28125 L 1033.519531 204.78125 L 1010.164062 204.78125 Z M 1010.164062 134.28125 "/></clipPath><clipPath id="f28ac5164d"><path d="M 549.007812 176.730469 L 572.359375 176.730469 L 572.359375 247.230469 L 549.007812 247.230469 Z M 549.007812 176.730469 "/></clipPath><clipPath id="a1f21b4632"><path d="M 485.375 223.875 L 555.875 223.875 L 555.875 247.226562 L 485.375 247.226562 Z M 485.375 223.875 "/></clipPath><clipPath id="235ae332c7"><path d="M 485.371094 241.105469 L 508.722656 241.105469 L 508.722656 311.605469 L 485.371094 311.605469 Z M 485.371094 241.105469 "/></clipPath><clipPath id="69f983b153"><path d="M 421.601562 288.246094 L 492.101562 288.246094 L 492.101562 311.601562 L 421.601562 311.601562 Z M 421.601562 288.246094 "/></clipPath><clipPath id="9b190b0afa"><path d="M 421.519531 223.878906 L 444.871094 223.878906 L 444.871094 294.378906 L 421.519531 294.378906 Z M 421.519531 223.878906 "/></clipPath><clipPath id="7e3bedaf9f"><path d="M 357.949219 223.875 L 428.449219 223.875 L 428.449219 247.226562 L 357.949219 247.226562 Z M 357.949219 223.875 "/></clipPath><clipPath id="f9a8b92cf0"><path d="M 357.664062 176.730469 L 381.015625 176.730469 L 381.015625 247.230469 L 357.664062 247.230469 Z M 357.664062 176.730469 "/></clipPath><clipPath id="3b37a3c9e7"><path d="M 1085.46875 187.980469 L 1108.820312 187.980469 L 1108.820312 258.480469 L 1085.46875 258.480469 Z M 1085.46875 187.980469 "/></clipPath><clipPath id="d871808640"><path d="M 1021.835938 235.125 L 1092.335938 235.125 L 1092.335938 258.476562 L 1021.835938 258.476562 Z M 1021.835938 235.125 "/></clipPath><clipPath id="2a458f4676"><path d="M 1021.832031 252.355469 L 1045.183594 252.355469 L 1045.183594 322.855469 L 1021.832031 322.855469 Z M 1021.832031 252.355469 "/></clipPath><clipPath id="ee972b7777"><path d="M 958.0625 299.496094 L 1028.5625 299.496094 L 1028.5625 322.851562 L 958.0625 322.851562 Z M 958.0625 299.496094 "/></clipPath><clipPath id="6ecc62b3ec"><path d="M 957.980469 235.128906 L 981.332031 235.128906 L 981.332031 305.628906 L 957.980469 305.628906 Z M 957.980469 235.128906 "/></clipPath><clipPath id="1daf1a758a"><path d="M 894.410156 235.125 L 964.910156 235.125 L 964.910156 258.476562 L 894.410156 258.476562 Z M 894.410156 235.125 "/></clipPath><clipPath id="234b7d14c2"><path d="M 894.125 187.980469 L 917.480469 187.980469 L 917.480469 258.480469 L 894.125 258.480469 Z M 894.125 187.980469 "/></clipPath></defs><g id="2b57e00f3f"><rect x="0" width="1125" y="0" height="374.999991" style="fill:#ffffff;fill-opacity:1;stroke:none;"/><rect x="0" width="1125" y="0" height="374.999991" style="fill:#ffffff;fill-opacity:1;stroke:none;"/><g clip-rule="nonzero" clip-path="url(#50ece62f31)"><path style=" stroke:none;fill-rule:nonzero;fill:#ffffff;fill-opacity:1;" d="M 9.765625 187.496094 L 9.765625 116.980469 L 33.117188 116.980469 L 33.117188 187.496094 Z M 9.765625 187.496094 "/></g><g clip-rule="nonzero" clip-path="url(#c38ef9b1d4)"><path style=" stroke:none;fill-rule:nonzero;fill:#ffffff;fill-opacity:1;" d="M 26.25 117 L 96.765625 117 L 96.765625 140.351562 L 26.25 140.351562 Z M 26.25 117 "/></g><g clip-rule="nonzero" clip-path="url(#9569f57c78)"><path style=" stroke:none;fill-rule:nonzero;fill:#ffffff;fill-opacity:1;" d="M 73.402344 123.121094 L 73.402344 52.605469 L 96.753906 52.605469 L 96.753906 123.121094 Z M 73.402344 123.121094 "/></g><g clip-rule="nonzero" clip-path="url(#9971c97e5a)"><path style=" stroke:none;fill-rule:nonzero;fill:#ffffff;fill-opacity:1;" d="M 90.023438 52.625 L 160.539062 52.625 L 160.539062 75.980469 L 90.023438 75.980469 Z M 90.023438 52.625 "/></g><g clip-rule="nonzero" clip-path="url(#c2a08b7f86)"><path style=" stroke:none;fill-rule:nonzero;fill:#ffffff;fill-opacity:1;" d="M 137.253906 140.347656 L 137.253906 69.832031 L 160.609375 69.832031 L 160.609375 140.347656 Z M 137.253906 140.347656 "/></g><g clip-rule="nonzero" clip-path="url(#f4e2c92f0c)"><path style=" stroke:none;fill-rule:nonzero;fill:#ffffff;fill-opacity:1;" d="M 153.679688 117 L 224.191406 117 L 224.191406 140.351562 L 153.679688 140.351562 Z M 153.679688 117 "/></g><g clip-rule="nonzero" clip-path="url(#fc1ce2148a)"><path style=" stroke:none;fill-rule:nonzero;fill:#ffffff;fill-opacity:1;" d="M 201.109375 187.496094 L 201.109375 116.980469 L 224.460938 116.980469 L 224.460938 187.496094 Z M 201.109375 187.496094 "/></g><g clip-rule="nonzero" clip-path="url(#54fa53701b)"><path style=" stroke:none;fill-rule:nonzero;fill:#ffffff;fill-opacity:1;" d="M 302.914062 171.121094 L 302.914062 241.636719 L 279.5625 241.636719 L 279.5625 171.121094 Z M 302.914062 171.121094 "/></g><g clip-rule="nonzero" clip-path="url(#82eae3175d)"><path style=" stroke:none;fill-rule:nonzero;fill:#ffffff;fill-opacity:1;" d="M 286.429688 241.617188 L 215.914062 241.617188 L 215.914062 218.265625 L 286.429688 218.265625 Z M 286.429688 241.617188 "/></g><g clip-rule="nonzero" clip-path="url(#b36d4b652e)"><path style=" stroke:none;fill-rule:nonzero;fill:#ffffff;fill-opacity:1;" d="M 239.277344 235.496094 L 239.277344 306.011719 L 215.925781 306.011719 L 215.925781 235.496094 Z M 239.277344 235.496094 "/></g><g clip-rule="nonzero" clip-path="url(#47360f756a)"><path style=" stroke:none;fill-rule:nonzero;fill:#ffffff;fill-opacity:1;" d="M 222.65625 305.992188 L 152.140625 305.992188 L 152.140625 282.636719 L 222.65625 282.636719 Z M 222.65625 305.992188 "/></g><g clip-rule="nonzero" clip-path="url(#c72b889fcb)"><path style=" stroke:none;fill-rule:nonzero;fill:#ffffff;fill-opacity:1;" d="M 175.425781 218.269531 L 175.425781 288.785156 L 152.070312 288.785156 L 152.070312 218.269531 Z M 175.425781 218.269531 "/></g><g clip-rule="nonzero" clip-path="url(#8390cc41f7)"><path style=" stroke:none;fill-rule:nonzero;fill:#ffffff;fill-opacity:1;" d="M 159 241.617188 L 88.484375 241.617188 L 88.484375 218.265625 L 159 218.265625 Z M 159 241.617188 "/></g><g clip-rule="nonzero" clip-path="url(#4231c125fe)"><path style=" stroke:none;fill-rule:nonzero;fill:#ffffff;fill-opacity:1;" d="M 111.570312 171.121094 L 111.570312 241.636719 L 88.21875 241.636719 L 88.21875 171.121094 Z M 111.570312 171.121094 "/></g><g clip-rule="nonzero" clip-path="url(#e220440e32)"><path style=" stroke:none;fill-rule:nonzero;fill:#ffffff;fill-opacity:1;" d="M 279.570312 196.109375 L 279.570312 125.59375 L 302.921875 125.59375 L 302.921875 196.109375 Z M 279.570312 196.109375 "/></g><g clip-rule="nonzero" clip-path="url(#cf3539d67f)"><path style=" stroke:none;fill-rule:nonzero;fill:#ffffff;fill-opacity:1;" d="M 296.054688 125.613281 L 366.570312 125.613281 L 366.570312 148.964844 L 296.054688 148.964844 Z M 296.054688 125.613281 "/></g><g clip-rule="nonzero" clip-path="url(#5b98edb0fc)"><path style=" stroke:none;fill-rule:nonzero;fill:#ffffff;fill-opacity:1;" d="M 343.207031 131.734375 L 343.207031 61.21875 L 366.558594 61.21875 L 366.558594 131.734375 Z M 343.207031 131.734375 "/></g><g clip-rule="nonzero" clip-path="url(#19b3e47a3a)"><path style=" stroke:none;fill-rule:nonzero;fill:#ffffff;fill-opacity:1;" d="M 359.828125 61.238281 L 430.34375 61.238281 L 430.34375 84.59375 L 359.828125 84.59375 Z M 359.828125 61.238281 "/></g><g clip-rule="nonzero" clip-path="url(#926668e53d)"><path style=" stroke:none;fill-rule:nonzero;fill:#ffffff;fill-opacity:1;" d="M 407.058594 148.960938 L 407.058594 78.445312 L 430.414062 78.445312 L 430.414062 148.960938 Z M 407.058594 148.960938 "/></g><g clip-rule="nonzero" clip-path="url(#08c1176a48)"><path style=" stroke:none;fill-rule:nonzero;fill:#ffffff;fill-opacity:1;" d="M 423.484375 125.613281 L 494 125.613281 L 494 148.964844 L 423.484375 148.964844 Z M 423.484375 125.613281 "/></g><g clip-rule="nonzero" clip-path="url(#339425f299)"><path style=" stroke:none;fill-rule:nonzero;fill:#ffffff;fill-opacity:1;" d="M 470.914062 196.109375 L 470.914062 125.59375 L 494.265625 125.59375 L 494.265625 196.109375 Z M 470.914062 196.109375 "/></g><g clip-rule="nonzero" clip-path="url(#e89c9ff2c5)"><path style=" stroke:none;fill-rule:nonzero;fill:#ffffff;fill-opacity:1;" d="M 549.015625 196.167969 L 549.015625 125.652344 L 572.371094 125.652344 L 572.371094 196.167969 Z M 549.015625 196.167969 "/></g><g clip-rule="nonzero" clip-path="url(#92f13bca6d)"><path style=" stroke:none;fill-rule:nonzero;fill:#ffffff;fill-opacity:1;" d="M 565.5 125.671875 L 636.015625 125.671875 L 636.015625 149.027344 L 565.5 149.027344 Z M 565.5 125.671875 "/></g><g clip-rule="nonzero" clip-path="url(#5ec6e8e862)"><path style=" stroke:none;fill-rule:nonzero;fill:#ffffff;fill-opacity:1;" d="M 612.652344 131.792969 L 612.652344 61.277344 L 636.007812 61.277344 L 636.007812 131.792969 Z M 612.652344 131.792969 "/></g><g clip-rule="nonzero" clip-path="url(#c7761fa316)"><path style=" stroke:none;fill-rule:nonzero;fill:#ffffff;fill-opacity:1;" d="M 629.273438 61.300781 L 699.789062 61.300781 L 699.789062 84.652344 L 629.273438 84.652344 Z M 629.273438 61.300781 "/></g><g clip-rule="nonzero" clip-path="url(#c88c3ef256)"><path style=" stroke:none;fill-rule:nonzero;fill:#ffffff;fill-opacity:1;" d="M 676.507812 149.019531 L 676.507812 78.503906 L 699.859375 78.503906 L 699.859375 149.019531 Z M 676.507812 149.019531 "/></g><g clip-rule="nonzero" clip-path="url(#bedd6fe86d)"><path style=" stroke:none;fill-rule:nonzero;fill:#ffffff;fill-opacity:1;" d="M 692.929688 125.671875 L 763.445312 125.671875 L 763.445312 149.027344 L 692.929688 149.027344 Z M 692.929688 125.671875 "/></g><g clip-rule="nonzero" clip-path="url(#01afd21100)"><path style=" stroke:none;fill-rule:nonzero;fill:#ffffff;fill-opacity:1;" d="M 740.359375 196.167969 L 740.359375 125.652344 L 763.710938 125.652344 L 763.710938 196.167969 Z M 740.359375 196.167969 "/></g><g clip-rule="nonzero" clip-path="url(#9e5e48b3c0)"><path style=" stroke:none;fill-rule:nonzero;fill:#ffffff;fill-opacity:1;" d="M 842.164062 179.792969 L 842.164062 250.308594 L 818.8125 250.308594 L 818.8125 179.792969 Z M 842.164062 179.792969 "/></g><g clip-rule="nonzero" clip-path="url(#d516764e9b)"><path style=" stroke:none;fill-rule:nonzero;fill:#ffffff;fill-opacity:1;" d="M 825.679688 250.289062 L 755.164062 250.289062 L 755.164062 226.9375 L 825.679688 226.9375 Z M 825.679688 250.289062 "/></g><g clip-rule="nonzero" clip-path="url(#26cbe09e61)"><path style=" stroke:none;fill-rule:nonzero;fill:#ffffff;fill-opacity:1;" d="M 778.53125 244.167969 L 778.53125 314.683594 L 755.175781 314.683594 L 755.175781 244.167969 Z M 778.53125 244.167969 "/></g><g clip-rule="nonzero" clip-path="url(#257efe3949)"><path style=" stroke:none;fill-rule:nonzero;fill:#ffffff;fill-opacity:1;" d="M 761.90625 314.664062 L 691.390625 314.664062 L 691.390625 291.308594 L 761.90625 291.308594 Z M 761.90625 314.664062 "/></g><g clip-rule="nonzero" clip-path="url(#626fd61422)"><path style=" stroke:none;fill-rule:nonzero;fill:#ffffff;fill-opacity:1;" d="M 714.675781 226.941406 L 714.675781 297.457031 L 691.324219 297.457031 L 691.324219 226.941406 Z M 714.675781 226.941406 "/></g><g clip-rule="nonzero" clip-path="url(#86978e64e6)"><path style=" stroke:none;fill-rule:nonzero;fill:#ffffff;fill-opacity:1;" d="M 698.253906 250.289062 L 627.738281 250.289062 L 627.738281 226.9375 L 698.253906 226.9375 Z M 698.253906 250.289062 "/></g><g clip-rule="nonzero" clip-path="url(#308b1a7a29)"><path style=" stroke:none;fill-rule:nonzero;fill:#ffffff;fill-opacity:1;" d="M 650.824219 179.792969 L 650.824219 250.308594 L 627.46875 250.308594 L 627.46875 179.792969 Z M 650.824219 179.792969 "/></g><g clip-rule="nonzero" clip-path="url(#9383e18dd6)"><path style=" stroke:none;fill-rule:nonzero;fill:#ffffff;fill-opacity:1;" d="M 818.820312 204.78125 L 818.820312 134.265625 L 842.175781 134.265625 L 842.175781 204.78125 Z M 818.820312 204.78125 "/></g><g clip-rule="nonzero" clip-path="url(#2b99ef586a)"><path style=" stroke:none;fill-rule:nonzero;fill:#ffffff;fill-opacity:1;" d="M 835.308594 134.285156 L 905.824219 134.285156 L 905.824219 157.640625 L 835.308594 157.640625 Z M 835.308594 134.285156 "/></g><g clip-rule="nonzero" clip-path="url(#6a8c100dac)"><path style=" stroke:none;fill-rule:nonzero;fill:#ffffff;fill-opacity:1;" d="M 882.457031 140.40625 L 882.457031 69.890625 L 905.8125 69.890625 L 905.8125 140.40625 Z M 882.457031 140.40625 "/></g><g clip-rule="nonzero" clip-path="url(#d753a262cf)"><path style=" stroke:none;fill-rule:nonzero;fill:#ffffff;fill-opacity:1;" d="M 899.082031 69.914062 L 969.597656 69.914062 L 969.597656 93.265625 L 899.082031 93.265625 Z M 899.082031 69.914062 "/></g><g clip-rule="nonzero" clip-path="url(#0bde6417c1)"><path style=" stroke:none;fill-rule:nonzero;fill:#ffffff;fill-opacity:1;" d="M 946.3125 157.632812 L 946.3125 87.117188 L 969.664062 87.117188 L 969.664062 157.632812 Z M 946.3125 157.632812 "/></g><g clip-rule="nonzero" clip-path="url(#76fc182fdc)"><path style=" stroke:none;fill-rule:nonzero;fill:#ffffff;fill-opacity:1;" d="M 962.734375 134.285156 L 1033.25 134.285156 L 1033.25 157.640625 L 962.734375 157.640625 Z M 962.734375 134.285156 "/></g><g clip-rule="nonzero" clip-path="url(#ed743878a6)"><path style=" stroke:none;fill-rule:nonzero;fill:#ffffff;fill-opacity:1;" d="M 1010.164062 204.78125 L 1010.164062 134.265625 L 1033.519531 134.265625 L 1033.519531 204.78125 Z M 1010.164062 204.78125 "/></g><g clip-rule="nonzero" clip-path="url(#f28ac5164d)"><path style=" stroke:none;fill-rule:nonzero;fill:#ffffff;fill-opacity:1;" d="M 572.359375 176.730469 L 572.359375 247.246094 L 549.007812 247.246094 L 549.007812 176.730469 Z M 572.359375 176.730469 "/></g><g clip-rule="nonzero" clip-path="url(#a1f21b4632)"><path style=" stroke:none;fill-rule:nonzero;fill:#ffffff;fill-opacity:1;" d="M 555.875 247.226562 L 485.359375 247.226562 L 485.359375 223.875 L 555.875 223.875 Z M 555.875 247.226562 "/></g><g clip-rule="nonzero" clip-path="url(#235ae332c7)"><path style=" stroke:none;fill-rule:nonzero;fill:#ffffff;fill-opacity:1;" d="M 508.722656 241.105469 L 508.722656 311.621094 L 485.371094 311.621094 L 485.371094 241.105469 Z M 508.722656 241.105469 "/></g><g clip-rule="nonzero" clip-path="url(#69f983b153)"><path style=" stroke:none;fill-rule:nonzero;fill:#ffffff;fill-opacity:1;" d="M 492.101562 311.601562 L 421.585938 311.601562 L 421.585938 288.246094 L 492.101562 288.246094 Z M 492.101562 311.601562 "/></g><g clip-rule="nonzero" clip-path="url(#9b190b0afa)"><path style=" stroke:none;fill-rule:nonzero;fill:#ffffff;fill-opacity:1;" d="M 444.871094 223.878906 L 444.871094 294.394531 L 421.519531 294.394531 L 421.519531 223.878906 Z M 444.871094 223.878906 "/></g><g clip-rule="nonzero" clip-path="url(#7e3bedaf9f)"><path style=" stroke:none;fill-rule:nonzero;fill:#ffffff;fill-opacity:1;" d="M 428.449219 247.226562 L 357.933594 247.226562 L 357.933594 223.875 L 428.449219 223.875 Z M 428.449219 247.226562 "/></g><g clip-rule="nonzero" clip-path="url(#f9a8b92cf0)"><path style=" stroke:none;fill-rule:nonzero;fill:#ffffff;fill-opacity:1;" d="M 381.015625 176.730469 L 381.015625 247.246094 L 357.664062 247.246094 L 357.664062 176.730469 Z M 381.015625 176.730469 "/></g><g clip-rule="nonzero" clip-path="url(#3b37a3c9e7)"><path style=" stroke:none;fill-rule:nonzero;fill:#ffffff;fill-opacity:1;" d="M 1108.820312 187.980469 L 1108.820312 258.496094 L 1085.46875 258.496094 L 1085.46875 187.980469 Z M 1108.820312 187.980469 "/></g><g clip-rule="nonzero" clip-path="url(#d871808640)"><path style=" stroke:none;fill-rule:nonzero;fill:#ffffff;fill-opacity:1;" d="M 1092.335938 258.476562 L 1021.820312 258.476562 L 1021.820312 235.125 L 1092.335938 235.125 Z M 1092.335938 258.476562 "/></g><g clip-rule="nonzero" clip-path="url(#2a458f4676)"><path style=" stroke:none;fill-rule:nonzero;fill:#ffffff;fill-opacity:1;" d="M 1045.183594 252.355469 L 1045.183594 322.871094 L 1021.832031 322.871094 L 1021.832031 252.355469 Z M 1045.183594 252.355469 "/></g><g clip-rule="nonzero" clip-path="url(#ee972b7777)"><path style=" stroke:none;fill-rule:nonzero;fill:#ffffff;fill-opacity:1;" d="M 1028.5625 322.851562 L 958.046875 322.851562 L 958.046875 299.496094 L 1028.5625 299.496094 Z M 1028.5625 322.851562 "/></g><g clip-rule="nonzero" clip-path="url(#6ecc62b3ec)"><path style=" stroke:none;fill-rule:nonzero;fill:#ffffff;fill-opacity:1;" d="M 981.332031 235.128906 L 981.332031 305.644531 L 957.980469 305.644531 L 957.980469 235.128906 Z M 981.332031 235.128906 "/></g><g clip-rule="nonzero" clip-path="url(#1daf1a758a)"><path style=" stroke:none;fill-rule:nonzero;fill:#ffffff;fill-opacity:1;" d="M 964.910156 258.476562 L 894.394531 258.476562 L 894.394531 235.125 L 964.910156 235.125 Z M 964.910156 258.476562 "/></g><g clip-rule="nonzero" clip-path="url(#234b7d14c2)"><path style=" stroke:none;fill-rule:nonzero;fill:#ffffff;fill-opacity:1;" d="M 917.480469 187.980469 L 917.480469 258.496094 L 894.125 258.496094 L 894.125 187.980469 Z M 917.480469 187.980469 "/></g></g></svg>